<svg width="300" height="300" xmlns="http://www.w3.org/2000/svg">

 <g>
  <title>background</title>
  <rect fill="none" id="canvas_background" height="402" width="582" y="-1" x="-1"/>
 </g>
 <g>
  <title>Layer 1</title>
  <path id="svg_1" stroke-width="7" stroke-miterlimit="10" stroke-linejoin="round" stroke-linecap="round" stroke="#fcfcfc" fill="none" d="m34.5,186.5c0,8.284 6.716,15 15,15l204,0c8.284,0 15,-6.716 15,-15l0,-52c0,-8.284 -6.716,-15 -15,-15l-204,0c-8.284,0 -15,6.716 -15,15l0,52z"/>
  <rect id="svg_2" y="174.5" x="60.5" width="144" stroke-width="7" stroke-miterlimit="10" stroke-linejoin="round" stroke-linecap="round" stroke="#ffffff" height="27" fill="none"/>
  <circle fill="#ffffff" id="svg_3" r="5" cy="183.5" cx="224.667"/>
  <circle fill="#ffffff" id="svg_4" r="5" cy="183.5" cx="244.667"/>
  <line id="svg_5" y2="139.5" y1="139.5" x2="245" x1="60" stroke-width="7" stroke-miterlimit="10" stroke-linejoin="round" stroke-linecap="round" stroke="#ffffff" fill="none"/>
  <line id="svg_6" y2="155.5" y1="155.5" x2="245" x1="60" stroke-width="7" stroke-miterlimit="10" stroke-linejoin="round" stroke-linecap="round" stroke="#ffffff" fill="none"/>
  <line id="svg_7" y2="240" y1="222" x2="71.920417" x1="71.920417" stroke-width="7" stroke-miterlimit="10" stroke-linejoin="round" stroke-linecap="round" stroke="#ffffff" fill="none"/>
  <line id="svg_8" y2="250" y1="222" x2="102.5" x1="102.5" stroke-width="7" stroke-miterlimit="10" stroke-linejoin="round" stroke-linecap="round" stroke="#ffffff" fill="none"/>
  <line id="svg_9" y2="260" y1="222" x2="132.5" x1="132.5" stroke-width="7" stroke-miterlimit="10" stroke-linejoin="round" stroke-linecap="round" stroke="#ffffff" fill="none"/>
  <line id="svg_10" y2="250" y1="222" x2="162.5" x1="162.5" stroke-width="7" stroke-miterlimit="10" stroke-linejoin="round" stroke-linecap="round" stroke="#ffffff" fill="none"/>
  <line id="svg_11" y2="240" y1="222" x2="192.5" x1="192.5" stroke-width="7" stroke-miterlimit="10" stroke-linejoin="round" stroke-linecap="round" stroke="#ffffff" fill="none"/>
 </g>
</svg>